HIERARCHY
ROOT Hips
{
	OFFSET 0.00000 0.00000 0.00000
	CHANNELS 6 Xposition Yposition Zposition Zrotation Yrotation Xrotation 
	JOINT LHipJoint
	{
		OFFSET 0 0 0
		CHANNELS 3 Zrotation Yrotation Xrotation
		JOINT LeftUpLeg
		{
			OFFSET 1.42489 -1.84941 0.69647
			CHANNELS 3 Zrotation Yrotation Xrotation
			JOINT LeftLeg
			{
				OFFSET 2.44443 -6.71602 0.00000
				CHANNELS 3 Zrotation Yrotation Xrotation
				JOINT LeftFoot
				{
					OFFSET 2.62838 -7.22137 0.00000
					CHANNELS 3 Zrotation Yrotation Xrotation
					JOINT LeftToeBase
					{
						OFFSET 0.24036 -0.66037 2.29953
						CHANNELS 3 Zrotation Yrotation Xrotation
						End Site
						{
							OFFSET 0.00000 -0.00000 1.19837
						}
					}
				}
			}
		}
	}
	JOINT RHipJoint
	{
		OFFSET 0 0 0
		CHANNELS 3 Zrotation Yrotation Xrotation
		JOINT RightUpLeg
		{
			OFFSET -1.37055 -1.84941 0.69647
			CHANNELS 3 Zrotation Yrotation Xrotation
			JOINT RightLeg
			{
				OFFSET -2.54834 -7.00152 0.00000
				CHANNELS 3 Zrotation Yrotation Xrotation
				JOINT RightFoot
				{
					OFFSET -2.65692 -7.29983 0.00000
					CHANNELS 3 Zrotation Yrotation Xrotation
					JOINT RightToeBase
					{
						OFFSET -0.18839 -0.51760 2.29390
						CHANNELS 3 Zrotation Yrotation Xrotation
						End Site
						{
							OFFSET -0.00000 -0.00000 1.18261
						}
					}
				}
			}
		}
	}
	JOINT LowerBack
	{
		OFFSET 0 0 0
		CHANNELS 3 Zrotation Yrotation Xrotation
		JOINT Spine
		{
			OFFSET 0.05220 2.15489 0.05011
			CHANNELS 3 Zrotation Yrotation Xrotation
			JOINT Spine1
			{
				OFFSET -0.07653 2.14219 -0.05668
				CHANNELS 3 Zrotation Yrotation Xrotation
				JOINT Neck
				{
					OFFSET 0 0 0
					CHANNELS 3 Zrotation Yrotation Xrotation
					JOINT Neck1
					{
						OFFSET 0.01370 1.58638 0.01447
						CHANNELS 3 Zrotation Yrotation Xrotation
						JOINT Head
						{
							OFFSET 0.23548 1.54190 -0.21747
							CHANNELS 3 Zrotation Yrotation Xrotation
							End Site
							{
								OFFSET 0.07132 1.59823 -0.08163
							}
						}
					}
				}
				JOINT LeftShoulder
				{
					OFFSET 0 0 0
					CHANNELS 3 Zrotation Yrotation Xrotation
					JOINT LeftArm
					{
						OFFSET 3.47056 1.45357 -0.58896
						CHANNELS 3 Zrotation Yrotation Xrotation
						JOINT LeftForeArm
						{
							OFFSET 5.19069 -0.00000 0.00000
							CHANNELS 3 Zrotation Yrotation Xrotation
							JOINT LeftHand
							{
								OFFSET 3.30016 -0.00000 0.00000
								CHANNELS 3 Zrotation Yrotation Xrotation
								JOINT LeftFingerBase
								{
									OFFSET 0 0 0
									CHANNELS 3 Zrotation Yrotation Xrotation
									JOINT LeftHandIndex1
									{
										OFFSET 0.70770 -0.00000 0.00000
										CHANNELS 3 Zrotation Yrotation Xrotation
										End Site
										{
											OFFSET 0.57056 -0.00000 0.00000
										}
									}
								}
								JOINT LThumb
								{
									OFFSET 0 0 0
									CHANNELS 3 Zrotation Yrotation Xrotation
									End Site
									{
										OFFSET 0.57928 -0.00000 0.57928
									}
								}
							}
						}
					}
				}
				JOINT RightShoulder
				{
					OFFSET 0 0 0
					CHANNELS 3 Zrotation Yrotation Xrotation
					JOINT RightArm
					{
						OFFSET -2.89018 2.03305 -0.26731
						CHANNELS 3 Zrotation Yrotation Xrotation
						JOINT RightForeArm
						{
							OFFSET -5.23924 -0.00000 0.00000
							CHANNELS 3 Zrotation Yrotation Xrotation
							JOINT RightHand
							{
								OFFSET -3.32953 -0.00000 0.00000
								CHANNELS 3 Zrotation Yrotation Xrotation
								JOINT RightFingerBase
								{
									OFFSET 0 0 0
									CHANNELS 3 Zrotation Yrotation Xrotation
									JOINT RightHandIndex1
									{
										OFFSET -0.60741 -0.00000 0.00000
										CHANNELS 3 Zrotation Yrotation Xrotation
										End Site
										{
											OFFSET -0.48971 -0.00000 0.00000
										}
									}
								}
								JOINT RThumb
								{
									OFFSET 0 0 0
									CHANNELS 3 Zrotation Yrotation Xrotation
									End Site
									{
										OFFSET -0.49719 -0.00000 0.49719
									}
								}
							}
						}
					}
				}
			}
		}
	}
}
MOTION
Frames: 14
Frame Time: 0.0166666
17.6175 15.4330 -14.5665 -9.1328 -28.4176 10.8590 0.0000 0.0000 0.0000 -6.8430 -12.7017 -48.2031 0.9166 6.1001 17.0750 1.2919 4.6089 -23.5792 1.1249 -6.7369 -18.9381 0.0000 0.0000 0.0000 34.5200 7.6210 -31.0258 -12.9803 -18.7750 69.0644 -3.9841 -2.9143 -38.8792 -0.8175 5.7694 -16.1167 8.9280 -2.4818 18.8935 0.0079 -2.3377 13.4760 -4.6632 -0.7144 3.8502 -1.4897 -0.4959 7.0031 10.2530 0.7245 -16.6070 3.4745 -0.4052 -6.2150 0.0000 0.0000 0.0000 -66.2160 -45.8350 40.6878 59.9057 -56.2847 -34.2626 -0.0000 0.0000 -83.1843 39.5043 5.2723 4.3324 -7.1250 0.0000 -0.0000 10.8139 36.6107 -2.2638 0.0000 0.0000 0.0000 70.0229 -11.8888 54.1690 -43.4482 49.9852 -21.0434 0.0000 0.0000 4.7241 -8.5067 -11.8766 1.7631 7.1250 -0.0000 -0.0000 16.5573 -41.3945 1.5191
17.5686 15.4575 -14.4395 -9.2703 -28.5443 11.0818 0.0000 0.0000 0.0000 -6.6620 -12.6311 -49.1907 1.1571 6.8294 19.2110 1.3294 4.1636 -23.6359 1.1159 -6.7109 -18.8615 0.0000 0.0000 0.0000 34.6668 7.1441 -30.6542 -12.8793 -18.7382 68.7503 -3.9801 -2.9410 -38.8695 -0.8527 5.8890 -16.4628 9.0196 -2.3824 19.0964 0.0600 -2.1842 13.5302 -4.6794 -0.6350 3.8346 -1.5373 -0.5619 7.0600 10.2537 0.6265 -16.5806 3.4897 -0.4502 -6.2102 0.0000 -0.0000 0.0000 -66.3836 -46.0569 40.6582 59.8056 -56.2579 -34.1794 -0.0000 0.0000 -83.0819 39.5438 5.0618 4.1663 -7.1250 0.0000 -0.0000 10.8229 36.3462 -2.3368 0.0000 -0.0000 0.0000 70.0061 -11.5349 54.2896 -43.4226 49.9719 -21.0238 0.0000 0.0000 4.7807 -8.5110 -11.9365 1.7728 7.1250 -0.0000 -0.0000 16.5705 -41.4528 1.4957
17.5248 15.4859 -14.3068 -9.1319 -29.0148 11.2759 0.0000 0.0000 0.0000 -6.7570 -12.3994 -49.9886 1.3725 7.4140 20.9479 1.3460 3.8856 -23.6214 1.1466 -6.7994 -19.1225 0.0000 0.0000 0.0000 34.4710 6.8421 -30.3109 -12.8000 -18.7088 68.5031 -3.9719 -2.9362 -38.8289 -0.8920 6.0200 -16.8424 8.8339 -2.2006 19.1616 -0.0191 -1.9731 13.5326 -4.6940 -0.5395 3.8315 -1.5957 -0.5749 7.0734 10.1992 0.5791 -16.3930 3.4812 -0.4587 -6.1501 -0.0000 0.0000 0.0000 -66.4219 -46.0107 40.5601 59.8202 -56.2618 -34.1915 -0.0000 0.0000 -83.0929 39.5948 4.9319 4.0674 -7.1250 0.0000 -0.0000 10.8506 36.1844 -2.3865 -0.0000 0.0000 0.0000 69.9661 -11.2026 54.4550 -43.4925 50.0082 -21.0773 0.0000 0.0000 4.7901 -8.4569 -12.0301 1.7750 7.1250 -0.0000 -0.0000 16.6435 -41.5382 1.4665
17.4839 15.5143 -14.1705 -8.8205 -29.6478 11.4952 0.0000 0.0000 0.0000 -6.9947 -12.1208 -50.7686 1.5829 7.9372 22.5236 1.3575 3.7484 -23.6422 1.1607 -6.8396 -19.2412 0.0000 0.0000 0.0000 34.0483 6.7205 -30.0263 -12.7429 -18.6874 68.3252 -3.9619 -2.9279 -38.7780 -0.9516 6.2124 -17.4018 8.4968 -1.9867 19.1095 -0.1810 -1.7491 13.4882 -4.7164 -0.4441 3.8319 -1.6280 -0.5555 7.0408 10.1034 0.5715 -16.1896 3.4514 -0.4449 -6.0796 0.0000 0.0000 0.0000 -66.2817 -45.7957 40.4528 59.9536 -56.2975 -34.3025 -0.0000 0.0000 -83.1612 39.6835 4.6738 3.8678 -7.1250 0.0000 -0.0000 10.8945 35.8616 -2.4837 0.0000 0.0000 0.0000 69.9560 -10.9646 54.5165 -43.7434 50.1378 -21.2697 0.0000 0.0000 4.7466 -8.3931 -12.0967 1.7710 7.1250 -0.0000 -0.0000 16.7172 -41.5965 1.4486
17.4419 15.5384 -14.0334 -8.5040 -30.2558 11.7878 0.0000 0.0000 0.0000 -7.2096 -11.8684 -51.6326 1.8045 8.4464 24.0783 1.3741 3.5687 -23.6823 1.1438 -6.7912 -19.0983 0.0000 0.0000 0.0000 33.6021 6.7199 -29.7886 -12.6909 -18.6677 68.1628 -3.9575 -2.9476 -38.7643 -1.0324 6.4629 -18.1335 8.1430 -1.7920 18.9798 -0.3435 -1.5556 13.4143 -4.7252 -0.3651 3.8331 -1.6637 -0.5157 7.0097 10.0119 0.6015 -16.1113 3.4237 -0.4174 -6.0511 0.0000 -0.0000 0.0000 -65.9866 -45.5107 40.3568 60.1744 -56.3562 -34.4863 -0.0000 0.0000 -83.1929 39.9090 3.8730 3.2335 -7.1250 0.0000 -0.0000 10.9837 34.8526 -2.7792 0.0000 -0.0000 0.0000 69.9765 -10.8461 54.4290 -44.1837 50.3623 -21.6083 0.0000 0.0000 4.6506 -8.3847 -12.0948 1.7689 7.1250 -0.0000 -0.0000 16.7239 -41.5939 1.4503
17.3960 15.5560 -13.8984 -8.3364 -30.6603 12.1668 0.0000 0.0000 0.0000 -7.2763 -11.7046 -52.5811 2.0432 8.9554 25.6559 1.3927 3.2469 -23.6690 1.1079 -6.6875 -18.7927 0.0000 0.0000 0.0000 33.3279 6.7031 -29.5720 -12.6253 -18.6427 67.9577 -3.9631 -2.9984 -38.8093 -1.1236 6.7331 -18.9272 7.9185 -1.6707 18.8325 -0.4453 -1.4379 13.3328 -4.7284 -0.3182 3.8266 -1.6979 -0.4722 7.0098 9.9469 0.6530 -16.1963 3.4067 -0.3879 -6.0809 -0.0000 0.0000 0.0000 -65.5888 -45.2361 40.2473 60.4275 -56.4228 -34.6970 -0.0000 0.0000 -83.1720 40.2263 2.6327 2.2250 -7.1250 0.0000 -0.0000 11.0826 33.2756 -3.2367 -0.0000 0.0000 0.0000 70.0325 -10.8230 54.2296 -44.7222 50.6317 -22.0238 0.0000 0.0000 4.5364 -8.4335 -12.0541 1.7735 7.1250 -0.0000 -0.0000 16.6704 -41.5592 1.4601
17.3462 15.5683 -13.7649 -8.3580 -30.8002 12.5741 0.0000 0.0000 0.0000 -7.1914 -11.6467 -53.5129 2.2989 9.4627 27.2536 1.4111 2.8217 -23.6115 1.0705 -6.5772 -18.4687 0.0000 0.0000 0.0000 33.2787 6.5420 -29.3168 -12.5373 -18.6087 67.6821 -3.9779 -3.0326 -38.8922 -1.2131 6.9869 -19.6766 7.9169 -1.6493 18.7102 -0.4917 -1.4168 13.2743 -4.7819 -0.3064 3.8245 -1.6946 -0.4384 7.0165 9.9071 0.7057 -16.3633 3.3932 -0.3652 -6.1379 0.0000 -0.0000 0.0000 -65.1546 -45.0304 40.0942 60.6154 -56.4717 -34.8536 -0.0000 0.0000 -83.0992 40.5048 1.5710 1.3415 -7.1250 0.0000 -0.0000 11.1612 31.9144 -3.6340 0.0000 -0.0000 0.0000 70.1489 -10.8350 53.9864 -45.2100 50.8710 -22.4016 0.0000 0.0000 4.4617 -8.5248 -12.0038 1.7856 7.1250 -0.0000 -0.0000 16.5777 -41.5192 1.4684
17.2952 15.5784 -13.6309 -8.4976 -30.7196 12.9186 0.0000 0.0000 0.0000 -7.0539 -11.6596 -54.3367 2.5720 9.9677 28.8722 1.4315 2.3461 -23.5544 1.0330 -6.4646 -18.1387 0.0000 0.0000 0.0000 33.3702 6.1884 -28.9826 -12.4350 -18.5685 67.3612 -3.9925 -3.0129 -38.9545 -1.3046 7.2357 -20.4155 8.1121 -1.7295 18.6384 -0.5113 -1.4978 13.2549 -4.9015 -0.3326 3.8303 -1.6664 -0.4086 7.0136 9.8847 0.7573 -16.5125 3.3807 -0.3452 -6.1877 0.0000 -0.0000 0.0000 -64.7118 -44.9197 39.8404 60.6289 -56.4752 -34.8648 -0.0000 0.0000 -83.0384 40.6771 0.9236 0.7937 -7.1250 0.0000 -0.0000 11.2061 31.0791 -3.8785 0.0000 -0.0000 0.0000 70.2866 -10.8318 53.7991 -45.5377 51.0292 -22.6560 0.0000 0.0000 4.4452 -8.5659 -11.9950 1.7930 7.1250 -0.0000 -0.0000 16.5398 -41.5144 1.4668
17.2447 15.5871 -13.4949 -8.6853 -30.5761 13.1891 0.0000 0.0000 0.0000 -6.9272 -11.6478 -55.0640 2.8651 10.4733 30.5235 1.4541 1.8778 -23.5289 0.9957 -6.3504 -17.8046 0.0000 0.0000 0.0000 33.4880 5.7728 -28.5586 -12.3373 -18.5296 67.0539 -3.9988 -2.8788 -38.9366 -1.4012 7.4880 -21.1696 8.3826 -1.8421 18.6158 -0.5153 -1.6086 13.2615 -5.0416 -0.3691 3.8371 -1.6188 -0.3825 6.9764 9.8622 0.8006 -16.5910 3.3637 -0.3274 -6.2087 -0.0000 0.0000 0.0000 -64.3356 -44.9136 39.5173 60.4228 -56.4215 -34.6931 -0.0000 0.0000 -83.0326 40.7266 0.8204 0.7063 -7.1250 0.0000 -0.0000 11.2302 30.9457 -3.9237 -0.0000 0.0000 0.0000 70.3812 -10.8266 53.7069 -45.7007 51.1071 -22.7828 0.0000 0.0000 4.4574 -8.5538 -11.9978 1.7909 7.1250 -0.0000 -0.0000 16.5511 -41.5161 1.4672
17.1945 15.5947 -13.3540 -8.8428 -30.4774 13.3928 0.0000 0.0000 0.0000 -6.8726 -11.5713 -55.7263 3.1773 10.9767 32.2014 1.4762 1.4596 -23.5295 0.9664 -6.2589 -17.5374 0.0000 0.0000 0.0000 33.5098 5.4096 -28.0573 -12.2602 -18.4985 66.8113 -3.9967 -2.5519 -38.8114 -1.5075 7.7545 -21.9709 8.6006 -1.9325 18.6014 -0.5061 -1.6983 13.2766 -5.1412 -0.3990 3.8515 -1.5654 -0.3550 6.9174 9.8279 0.8406 -16.6147 3.3407 -0.3083 -6.2083 0.0000 -0.0000 0.0000 -64.0886 -44.9807 39.2078 60.0585 -56.3255 -34.3898 -0.0000 0.0000 -83.0832 40.8293 0.6501 0.5617 -7.1250 0.0000 -0.0000 11.2861 30.7248 -4.0049 0.0000 -0.0000 0.0000 70.3817 -10.8526 53.7152 -45.7366 51.1243 -22.8107 0.0000 0.0000 4.4538 -8.5021 -12.0043 1.7808 7.1250 -0.0000 -0.0000 16.5974 -41.5175 1.4710
17.1433 15.5988 -13.2075 -8.9409 -30.4223 13.5775 0.0000 0.0000 0.0000 -6.8890 -11.4653 -56.3903 3.5057 11.4719 33.8884 1.4906 1.0841 -23.4938 0.9489 -6.2035 -17.3761 0.0000 0.0000 0.0000 33.3952 5.1421 -27.5417 -12.2113 -18.4785 66.6570 -3.9815 -2.0558 -38.5692 -1.6531 8.1027 -23.0264 8.7159 -1.9823 18.5370 -0.4742 -1.7535 13.2779 -5.1642 -0.4191 3.8796 -1.5092 -0.3271 6.8638 9.7775 0.8781 -16.6250 3.3120 -0.2890 -6.2044 -0.0000 -0.0000 0.0000 -64.0089 -45.0714 39.0038 59.6762 -56.2230 -34.0718 -0.0000 0.0000 -83.1646 40.9039 0.5946 0.5151 -7.1250 0.0000 -0.0000 11.3365 30.6525 -4.0434 -0.0000 -0.0000 0.0000 70.2774 -10.9501 53.7995 -45.6932 51.1036 -22.7770 0.0000 0.0000 4.4040 -8.4471 -12.0095 1.7699 7.1250 -0.0000 -0.0000 16.6460 -41.5173 1.4756
17.0901 15.5981 -13.0549 -9.0101 -30.3732 13.7781 0.0000 0.0000 0.0000 -6.9197 -11.3821 -57.0847 3.8519 11.9607 35.5932 1.4966 0.7020 -23.3969 0.9353 -6.1604 -17.2506 0.0000 0.0000 0.0000 33.1820 4.9395 -27.0291 -12.1827 -18.4668 66.5668 -3.9574 -1.4201 -38.2437 -1.8536 8.5542 -24.4105 8.7810 -2.0040 18.3847 -0.4246 -1.7863 13.2670 -5.1449 -0.4305 3.9416 -1.4402 -0.3050 6.8246 9.7197 0.9094 -16.6512 3.2797 -0.2737 -6.2077 0.0000 -0.0000 0.0000 -64.0626 -45.1535 38.9493 59.4063 -56.1496 -33.8476 -0.0000 0.0000 -83.2306 40.9100 0.7254 0.6285 -7.1250 0.0000 -0.0000 11.3606 30.8221 -4.0052 0.0000 -0.0000 0.0000 70.1219 -11.1152 53.9152 -45.5870 51.0528 -22.6944 0.0000 0.0000 4.3290 -8.4001 -12.0237 1.7620 7.1250 -0.0000 -0.0000 16.6904 -41.5267 1.4758
17.0348 15.5920 -12.8962 -9.0902 -30.2768 13.9872 0.0000 0.0000 0.0000 -6.9081 -11.3644 -57.8006 4.2256 12.4547 37.3602 1.4993 0.2441 -23.2547 0.9086 -6.0743 -17.0000 0.0000 0.0000 0.0000 32.9382 4.7299 -26.4956 -12.1602 -18.4576 66.4959 -3.9374 -0.6538 -37.9073 -2.0899 9.0508 -25.9544 8.8670 -2.0260 18.1703 -0.3556 -1.8222 13.2509 -5.1171 -0.4416 4.0297 -1.3647 -0.2983 6.8033 9.6479 0.9198 -16.6987 3.2438 -0.2690 -6.2195 0.0000 0.0000 0.0000 -64.2003 -45.2242 39.0222 59.2863 -56.1167 -33.7480 -0.0000 0.0000 -83.2577 40.8746 0.9453 0.8180 -7.1250 0.0000 -0.0000 11.3649 31.1074 -3.9275 0.0000 0.0000 0.0000 69.9554 -11.3137 54.0328 -45.3919 50.9590 -22.5427 0.0000 0.0000 4.2766 -8.3617 -12.0493 1.7575 7.1250 -0.0000 -0.0000 16.7307 -41.5479 1.4706
16.9779 15.5792 -12.7321 -9.2410 -30.1561 14.2127 0.0000 0.0000 0.0000 -6.7926 -11.3828 -58.5364 4.6372 12.9632 39.2310 1.5014 -0.2464 -23.1067 0.8647 -5.9293 -16.5795 0.0000 0.0000 0.0000 32.7395 4.5227 -25.9004 -12.1344 -18.4469 66.4142 -3.9284 0.2159 -37.6082 -2.3278 9.5178 -27.4290 9.0076 -2.0557 17.9560 -0.2579 -1.8612 13.2239 -5.0886 -0.4525 4.1066 -1.3129 -0.3014 6.7860 9.5571 0.9102 -16.7473 3.2073 -0.2710 -6.2310 0.0000 -0.0000 0.0000 -64.4157 -45.2479 39.1510 59.3021 -56.1211 -33.7610 -0.0000 0.0000 -83.2191 40.8113 1.2204 1.0537 -7.1250 0.0000 -0.0000 11.3549 31.4637 -3.8248 0.0000 -0.0000 0.0000 69.7668 -11.5131 54.1709 -45.1020 50.8184 -22.3178 0.0000 0.0000 4.2798 -8.3202 -12.0741 1.7522 7.1250 -0.0000 -0.0000 16.7735 -41.5678 1.4660
